<svg width="249" height="24" viewBox="0 0 249 24" fill="none" xmlns="http://www.w3.org/2000/svg">
<path d="M11.668 19V11.875H4.05078V19H0.511719V2.08984H4.05078V8.95703H11.668V2.08984H15.207V19H11.668ZM23.1992 16.6562C24.0039 16.6562 24.6758 16.4336 25.2148 15.9883C25.7695 15.5352 26.0469 14.9609 26.0469 14.2656V13.3164L23.3398 13.5039C21.8789 13.5977 21.1484 14.1328 21.1484 15.1094C21.1484 15.5859 21.3359 15.9609 21.7109 16.2344C22.0781 16.5156 22.5742 16.6562 23.1992 16.6562ZM22.0859 19.1523C20.8281 19.1523 19.793 18.7969 18.9805 18.0859C18.1523 17.3594 17.7383 16.4258 17.7383 15.2852C17.7383 14.1211 18.1758 13.207 19.0508 12.543C19.9102 11.8945 21.168 11.5195 22.8242 11.418L26.0469 11.2188V10.3633C26.0469 9.74609 25.8477 9.26953 25.4492 8.93359C25.0508 8.60547 24.4961 8.44141 23.7852 8.44141C23.1758 8.44141 22.6641 8.58984 22.25 8.88672C21.8438 9.17578 21.5977 9.55859 21.5117 10.0352H18.3828C18.4297 8.80078 18.9609 7.80078 19.9766 7.03516C21 6.26172 22.3164 5.875 23.9258 5.875C25.582 5.875 26.9102 6.26562 27.9102 7.04688C28.9102 7.82812 29.4102 8.86328 29.4102 10.1523V19H26.1055V17.0078H26.0352C25.6914 17.6719 25.1523 18.1992 24.418 18.5898C23.707 18.9648 22.9297 19.1523 22.0859 19.1523ZM35.7969 0.402344C35.8125 1.03516 36 1.55078 36.3594 1.94922C36.7344 2.35547 37.2266 2.55859 37.8359 2.55859C38.4375 2.55859 38.9258 2.35547 39.3008 1.94922C39.6602 1.55078 39.8477 1.03516 39.8633 0.402344H41.9609C41.9609 1.55859 41.582 2.48828 40.8242 3.19141C40.0664 3.90234 39.0703 4.25781 37.8359 4.25781C36.6016 4.25781 35.6055 3.90234 34.8477 3.19141C34.0898 2.48828 33.7109 1.55859 33.7109 0.402344H35.7969ZM31.7422 19V6.09766H35.0938V14.2656H35.1875L40.5312 6.09766H43.8828V19H40.5312V10.7383H40.4375L35.0938 19H31.7422ZM58.5312 19H54.3945L49.9414 13.4219H49.8477V19H46.4375V6.09766H49.8477V11.3242H49.9414L54.3242 6.09766H58.2383L53.0234 12.0859L58.5312 19ZM67.4141 5.94531C69.0547 5.94531 70.3477 6.53125 71.293 7.70312C72.2383 8.88281 72.7109 10.4961 72.7109 12.543C72.7109 14.5898 72.2422 16.2031 71.3047 17.3828C70.3594 18.5625 69.0781 19.1523 67.4609 19.1523C65.5312 19.1523 64.1953 18.3789 63.4531 16.832H63.3828V23.0547H59.9609V6.09766H63.3359V8.30078H63.4062C63.75 7.57422 64.2773 7 64.9883 6.57812C65.6992 6.15625 66.5078 5.94531 67.4141 5.94531ZM66.2773 16.3867C67.168 16.3867 67.8789 16.0391 68.4102 15.3438C68.9414 14.6484 69.207 13.7148 69.207 12.543C69.207 11.3867 68.9414 10.457 68.4102 9.75391C67.8711 9.05859 67.1602 8.71094 66.2773 8.71094C65.4023 8.71094 64.6992 9.0625 64.168 9.76562C63.6367 10.4688 63.3711 11.3984 63.3711 12.5547C63.3711 13.7109 63.6367 14.6406 64.168 15.3438C64.6992 16.0391 65.4023 16.3867 66.2773 16.3867ZM79.7539 16.6562C80.5586 16.6562 81.2305 16.4336 81.7695 15.9883C82.3242 15.5352 82.6016 14.9609 82.6016 14.2656V13.3164L79.8945 13.5039C78.4336 13.5977 77.7031 14.1328 77.7031 15.1094C77.7031 15.5859 77.8906 15.9609 78.2656 16.2344C78.6328 16.5156 79.1289 16.6562 79.7539 16.6562ZM78.6406 19.1523C77.3828 19.1523 76.3477 18.7969 75.5352 18.0859C74.707 17.3594 74.293 16.4258 74.293 15.2852C74.293 14.1211 74.7305 13.207 75.6055 12.543C76.4648 11.8945 77.7227 11.5195 79.3789 11.418L82.6016 11.2188V10.3633C82.6016 9.74609 82.4023 9.26953 82.0039 8.93359C81.6055 8.60547 81.0508 8.44141 80.3398 8.44141C79.7305 8.44141 79.2188 8.58984 78.8047 8.88672C78.3984 9.17578 78.1523 9.55859 78.0664 10.0352H74.9375C74.9844 8.80078 75.5156 7.80078 76.5312 7.03516C77.5547 6.26172 78.8711 5.875 80.4805 5.875C82.1367 5.875 83.4648 6.26562 84.4648 7.04688C85.4648 7.82812 85.9648 8.86328 85.9648 10.1523V19H82.6602V17.0078H82.5898C82.2461 17.6719 81.707 18.1992 80.9727 18.5898C80.2617 18.9648 79.4844 19.1523 78.6406 19.1523ZM104.691 22.3398V19H88.2969V6.09766H91.707V16.3984H95.4102V6.09766H98.8203V16.3984H102.523V6.09766H105.934V16.3984H107.809V22.3398H104.691ZM109.414 6.09766H112.836V19H109.414V6.09766ZM111.125 4.69141C110.617 4.69141 110.184 4.51953 109.824 4.17578C109.465 3.83203 109.285 3.40625 109.285 2.89844C109.285 2.39063 109.465 1.96484 109.824 1.62109C110.184 1.28516 110.617 1.11719 111.125 1.11719C111.641 1.11719 112.078 1.28516 112.438 1.62109C112.797 1.96484 112.977 2.39063 112.977 2.89844C112.977 3.40625 112.797 3.83203 112.438 4.17578C112.078 4.51953 111.641 4.69141 111.125 4.69141ZM120.664 19V6.09766H125.082L128.539 14.6289H128.633L132.078 6.09766H136.449V19H133.227V10.3398H133.133L129.746 18.2969H127.367L123.969 10.3398H123.875V19H120.664ZM140.656 23.7109C139.961 23.7109 139.527 23.6953 139.355 23.6641V21.0156C139.473 21.0391 139.73 21.0508 140.129 21.0508C141.395 21.0508 142.156 20.5586 142.414 19.5742L142.531 19.082L138.008 6.09766H141.758L144.547 16.2227H144.617L147.418 6.09766H151.027L146.562 19.2578C146.016 20.8984 145.297 22.0508 144.406 22.7148C143.523 23.3789 142.273 23.7109 140.656 23.7109ZM157.73 19.2695C156.066 19.2695 154.727 18.8867 153.711 18.1211C152.688 17.3555 152.113 16.3008 151.988 14.957H155.27C155.566 16.0664 156.387 16.6211 157.73 16.6211C158.434 16.6211 158.98 16.4766 159.371 16.1875C159.754 15.8984 159.945 15.5078 159.945 15.0156C159.945 14.0078 159.211 13.5039 157.742 13.5039H155.949V11.2539H157.648C158.93 11.2539 159.57 10.7852 159.57 9.84766C159.57 9.41016 159.414 9.0625 159.102 8.80469C158.766 8.53906 158.289 8.40625 157.672 8.40625C156.367 8.40625 155.633 8.91797 155.469 9.94141H152.246C152.371 8.66016 152.914 7.65234 153.875 6.91797C154.836 6.18359 156.098 5.81641 157.66 5.81641C159.34 5.81641 160.637 6.14062 161.551 6.78906C162.449 7.42969 162.898 8.32812 162.898 9.48438C162.898 10.1328 162.723 10.6992 162.371 11.1836C162.02 11.6758 161.543 12.0039 160.941 12.168V12.2617C162.551 12.668 163.355 13.625 163.355 15.1328C163.355 16.4062 162.852 17.4141 161.844 18.1562C160.836 18.8984 159.465 19.2695 157.73 19.2695ZM171.254 8.42969C170.473 8.42969 169.82 8.6875 169.297 9.20312C168.781 9.71875 168.492 10.3906 168.43 11.2188H173.996C173.965 10.375 173.699 9.69922 173.199 9.19141C172.699 8.68359 172.051 8.42969 171.254 8.42969ZM177.195 15.0625C177.008 16.3125 176.379 17.3164 175.309 18.0742C174.238 18.8398 172.918 19.2227 171.348 19.2227C169.387 19.2227 167.84 18.6328 166.707 17.4531C165.582 16.2734 165.02 14.6562 165.02 12.6016C165.02 10.5469 165.578 8.91406 166.695 7.70312C167.82 6.48438 169.328 5.875 171.219 5.875C173.078 5.875 174.555 6.45312 175.648 7.60938C176.75 8.76562 177.301 10.3242 177.301 12.2852V13.3398H168.395V13.5508C168.395 14.4805 168.672 15.2344 169.227 15.8125C169.781 16.3828 170.508 16.668 171.406 16.668C172.055 16.668 172.613 16.5234 173.082 16.2344C173.559 15.9531 173.879 15.5625 174.043 15.0625H177.195ZM179.387 6.09766H182.809V19H179.387V6.09766ZM178.648 4.24609C178.203 4.24609 177.828 4.09375 177.523 3.78906C177.219 3.49219 177.066 3.13281 177.066 2.71094C177.066 2.28906 177.219 1.92578 177.523 1.62109C177.828 1.32422 178.203 1.17578 178.648 1.17578C179.094 1.17578 179.469 1.32422 179.773 1.62109C180.078 1.92578 180.23 2.28906 180.23 2.71094C180.23 3.13281 180.078 3.49219 179.773 3.78906C179.469 4.09375 179.094 4.24609 178.648 4.24609ZM183.559 4.24609C183.113 4.24609 182.738 4.09375 182.434 3.78906C182.129 3.49219 181.977 3.13281 181.977 2.71094C181.977 2.28906 182.129 1.92578 182.434 1.62109C182.738 1.32422 183.113 1.17578 183.559 1.17578C184.004 1.17578 184.379 1.32422 184.684 1.62109C184.988 1.92578 185.141 2.28906 185.141 2.71094C185.141 3.13281 184.988 3.49219 184.684 3.78906C184.379 4.09375 184.004 4.24609 183.559 4.24609ZM199.051 10.4805C198.91 9.89453 198.625 9.43359 198.195 9.09766C197.742 8.74609 197.188 8.57031 196.531 8.57031C195.648 8.57031 194.949 8.92188 194.434 9.625C193.918 10.3359 193.66 11.3086 193.66 12.543C193.66 13.793 193.918 14.7695 194.434 15.4727C194.949 16.168 195.652 16.5156 196.543 16.5156C197.918 16.5156 198.762 15.8867 199.074 14.6289H202.273C202.109 16.0352 201.512 17.1523 200.48 17.9805C199.449 18.8086 198.125 19.2227 196.508 19.2227C194.578 19.2227 193.051 18.6289 191.926 17.4414C190.785 16.2383 190.215 14.6055 190.215 12.543C190.215 10.5039 190.781 8.88281 191.914 7.67969C193.047 6.47656 194.57 5.875 196.484 5.875C198.102 5.875 199.434 6.30859 200.48 7.17578C201.504 8.01172 202.098 9.11328 202.262 10.4805H199.051ZM207.641 8.28906V11.3242H209.691C211.035 11.3242 211.707 10.8164 211.707 9.80078C211.707 8.79297 211.098 8.28906 209.879 8.28906H207.641ZM207.641 13.3398V16.7969H210.055C211.484 16.7969 212.199 16.2188 212.199 15.0625C212.199 13.9141 211.426 13.3398 209.879 13.3398H207.641ZM204.289 6.09766H210.781C212.109 6.09766 213.152 6.38672 213.91 6.96484C214.668 7.54297 215.047 8.33984 215.047 9.35547C215.047 10.043 214.824 10.6523 214.379 11.1836C213.941 11.7148 213.391 12.0352 212.727 12.1445V12.2383C213.586 12.3477 214.281 12.6758 214.812 13.2227C215.352 13.7852 215.621 14.4648 215.621 15.2617C215.621 16.4023 215.199 17.3086 214.355 17.9805C213.496 18.6602 212.344 19 210.898 19H204.289V6.09766ZM217.789 6.09766H221.211V19H217.789V6.09766ZM219.5 4.69141C218.992 4.69141 218.559 4.51953 218.199 4.17578C217.84 3.83203 217.66 3.40625 217.66 2.89844C217.66 2.39063 217.84 1.96484 218.199 1.62109C218.559 1.28516 218.992 1.11719 219.5 1.11719C220.016 1.11719 220.453 1.28516 220.812 1.62109C221.172 1.96484 221.352 2.39063 221.352 2.89844C221.352 3.40625 221.172 3.83203 220.812 4.17578C220.453 4.51953 220.016 4.69141 219.5 4.69141ZM234.277 8.6875H230.41V19H227V8.6875H223.133V6.09766H234.277V8.6875ZM237.734 23.7109C237.039 23.7109 236.605 23.6953 236.434 23.6641V21.0156C236.551 21.0391 236.809 21.0508 237.207 21.0508C238.473 21.0508 239.234 20.5586 239.492 19.5742L239.609 19.082L235.086 6.09766H238.836L241.625 16.2227H241.695L244.496 6.09766H248.105L243.641 19.2578C243.094 20.8984 242.375 22.0508 241.484 22.7148C240.602 23.3789 239.352 23.7109 237.734 23.7109Z" fill="black"/>
</svg>
